<svg width="209" height="85" viewBox="0 0 209 85" fill="#0069ff" xmlns="http://www.w3.org/2000/svg"
     class="header-module--logoClass--f4379 ">
  <path d="M88.6049 50.8984H82.9648V75.3367H88.6049V50.8984Z"></path>
  <path d="M88.6049 11.9297H82.9648V36.3679H88.6049V11.9297Z"></path>
  <path
    d="M4.63611 29.5513V16.1897H1.375V11.9364H4.63611V6.5625H10.2884V11.9364H15.6344V16.1897H10.2884V29.0373C10.2884 31.1883 11.3138 32.1701 13.0853 32.1701C14.0236 32.2023 14.9586 32.0432 15.8337 31.7023V36.1871C14.6069 36.617 13.313 36.8224 12.0137 36.7936C7.15362 36.7936 4.64825 34.1774 4.64825 29.5513"></path>
  <path
    d="M19.5547 0.625H25.1948V15.8015C26.3588 13.419 29.0634 11.4166 33.0705 11.4166C37.9646 11.4166 41.4153 14.2668 41.4153 20.9951V36.3689H35.7752V21.5091C35.7752 17.8185 34.2831 16.1352 30.9273 16.1352C27.7682 16.1352 25.1948 18.0986 25.1948 21.9817V36.3737H19.5547V0.625Z"></path>
  <path
    d="M62.9483 21.6015C62.6689 17.3945 60.5183 15.5261 57.0287 15.5261C53.6267 15.5261 51.3425 17.816 50.7836 21.6015H62.9483ZM44.9102 24.403V24.0303C44.9102 16.4615 50.0837 11.4141 57.0287 11.4141C63.0868 11.4141 68.5422 15.0121 68.5422 23.7501V25.3847H50.6888C50.8759 30.0132 53.2063 32.627 57.4005 32.627C60.8026 32.627 62.5741 31.2726 62.9896 28.8901H68.4426C67.6504 34.0302 63.5024 36.8316 57.2645 36.8316C50.0861 36.8316 44.9126 32.113 44.9126 24.4078"></path>
  <path
    d="M82.3555 4.69103C82.3555 2.8226 83.8475 1.42188 85.7113 1.42188C87.5752 1.42188 89.0672 2.8226 89.0672 4.69103C89.0672 6.51318 87.5776 7.91634 85.7113 7.91634C83.8451 7.91634 82.3555 6.51318 82.3555 4.69103"></path>
  <path
    d="M18.6202 60.5757C18.3407 56.3711 16.1901 54.5026 12.7006 54.5026C9.29857 54.5026 7.01433 56.7901 6.45543 60.5757H18.6202ZM0.582031 63.3795V63.0044C0.582031 55.4357 5.75801 50.3906 12.7006 50.3906C18.7611 50.3906 24.2141 53.9886 24.2141 62.7242V64.3613H6.36308C6.5502 68.9897 8.8806 71.6036 13.0748 71.6036C16.4769 71.6036 18.2484 70.2467 18.6639 67.8643H24.1169C23.3247 73.0043 19.1767 75.8082 12.9388 75.8082C5.76286 75.8082 0.586892 71.0896 0.586892 63.3844"></path>
  <path
    d="M27.8945 50.9051H33.5346V54.7833C34.7011 52.3984 37.4033 50.3984 41.4128 50.3984C46.3069 50.3984 49.7551 53.2486 49.7551 59.9769V75.3483H44.115V60.4885C44.115 56.7955 42.623 55.1146 39.2671 55.1146C36.108 55.1146 33.5346 57.078 33.5346 60.9611V75.3507H27.8945V50.9051Z"></path>
  <path
    d="M72.2213 62.5391V62.2103C72.2213 57.5818 69.7038 54.8291 65.648 54.8291C61.4538 54.8291 59.031 57.8668 59.031 62.3053V62.678C59.031 67.2114 61.828 70.0129 65.4634 70.0129C69.3781 70.0129 72.2213 67.2114 72.2213 62.5391V62.5391ZM53.5295 76.1809H59.2157C59.6823 78.6169 61.5461 80.0128 65.2301 80.0128C69.6041 80.0128 72.0342 77.8203 72.0342 73.4355V69.8277C71.1951 71.1959 70.0241 72.329 68.6304 73.1212C67.2368 73.9135 65.6657 74.3392 64.0637 74.3587C57.9594 74.3587 53.25 69.7814 53.25 62.7242V62.3978C53.25 55.5307 57.9108 50.3906 64.2046 50.3906C68.2117 50.3906 70.6369 52.2128 72.0342 54.6415V50.9046H77.6743V73.5183C77.6281 80.7143 72.8264 84.3124 65.2811 84.3124C57.6362 84.3124 54.188 80.8532 53.5343 76.1809"></path>
  <path
    d="M82.3555 43.6622C82.3555 41.7938 83.8475 40.3906 85.7113 40.3906C87.5752 40.3906 89.0672 41.7938 89.0672 43.6622C89.0672 45.4844 87.5776 46.8851 85.7113 46.8851C83.8451 46.8851 82.3555 45.4844 82.3555 43.6622"></path>
  <path
    d="M94.0312 50.9051H99.6714V54.7833C100.835 52.3984 103.54 50.3984 107.547 50.3984C112.441 50.3984 115.892 53.2486 115.892 59.9769V75.3483H110.252V60.4885C110.252 56.7955 108.76 55.1146 105.392 55.1146C102.233 55.1146 99.6592 57.078 99.6592 60.9611V75.3507H94.0312V50.9051Z"></path>
  <path
    d="M137.421 60.5757C137.142 56.3711 134.991 54.5026 131.501 54.5026C128.099 54.5026 125.815 56.7901 125.256 60.5757H137.421ZM119.383 63.3795V63.0044C119.383 55.4357 124.556 50.3906 131.501 50.3906C137.562 50.3906 143.015 53.9886 143.015 62.7242V64.3613H125.164C125.349 68.9897 127.679 71.6036 131.876 71.6036C135.278 71.6036 137.049 70.2467 137.465 67.8643H142.92C142.128 73.0043 137.98 75.8082 131.742 75.8082C124.564 75.8082 119.39 71.0896 119.39 63.3844"></path>
  <path
    d="M163.605 60.5757C163.325 56.3711 161.175 54.5026 157.687 54.5026C154.285 54.5026 151.999 56.7901 151.44 60.5757H163.605ZM145.566 63.3795V63.0044C145.566 55.4357 150.742 50.3906 157.687 50.3906C163.746 50.3906 169.198 53.9886 169.198 62.7242V64.3613H151.347C151.535 68.9897 153.865 71.6036 158.059 71.6036C161.461 71.6036 163.233 70.2467 163.648 67.8643H169.101C168.309 73.0043 164.161 75.8082 157.923 75.8082C150.747 75.8082 145.571 71.0896 145.571 63.3844"></path>
  <path
    d="M172.879 50.8986H178.519V55.4783C180.057 52.3919 182.341 50.5697 186.443 50.5234V55.8047C181.503 55.851 178.519 57.4393 178.519 62.6256V75.3344H172.879V50.8986Z"></path>
  <path
    d="M188.168 67.7254H193.482C193.762 70.2004 195.021 71.6499 198.33 71.6499C201.358 71.6499 202.704 70.5756 202.704 68.5196C202.704 66.5099 201.071 65.762 197.485 65.1554C191.052 64.1274 188.673 62.3053 188.673 57.7255C188.673 52.8194 193.242 50.3906 197.81 50.3906C202.797 50.3906 206.758 52.2591 207.365 57.7718H202.148C201.684 55.5307 200.425 54.5026 197.815 54.5026C195.385 54.5026 193.947 55.6695 193.947 57.3991C193.947 59.175 195.111 59.8741 198.979 60.5294C204.712 61.4161 208.116 62.8193 208.116 68.0056C208.116 72.958 204.619 75.8009 198.374 75.8009C192.083 75.8009 188.411 72.9044 188.168 67.7181"></path>
  <path d="M207.368 21.4375H93.9336V26.8723H207.368V21.4375Z"></path>
</svg>
